#!OML:ASF H:\Terrain\Patient Classification 1\PLAYGROUND\JustinFriday\JustinFriday.ASF
:FULLY-SPECIFIED
:DEGREES
2055
root 14.2686 30.8782 50.4575 -197.8 20.0639 -177.13
lowerback 34.9736 -2.42952 -2.77691
upperback 9.89663 -1.46172 -0.607491
thorax -6.65537 0.413202 1.22184
lowerneck -6.34771 4.93696 -25.8844
upperneck 17.4363 8.80149 11.7429
head 4.68025 3.88758 8.40586
rclavicle -5.80451e-014 2.38542e-014
rhumerus 82.6332 23.8053 -76.1102
rradius 49.99
rwrist -344.097
rhand -19.3985 -21.0751
rfingers 7.12502
rthumb 6.9205 -50.942
lclavicle -5.80451e-014 2.38542e-014
lhumerus 70.1766 23.0391 54.3206
lradius 37.3537
lwrist -18.6059
lhand 1.07824 1.83308
lfingers 7.12502
lthumb 26.6227 29.9813
rfemur -83.0774 18.7934 33.8991
rtibia 121.801
rfoot -22.9893 -13.2508
rtoes 8.13474
lfemur -54.9543 32.9201 -15.2149
ltibia 80.4765
lfoot -211.875 162.867
ltoes 16.6387
2056
root 14.2658 30.881 50.423 -198.251 19.9673 -177.101
lowerback 34.8397 -2.46771 -2.81008
upperback 10.034 -1.47706 -0.512213
thorax -6.45278 0.412119 1.34398
lowerneck -6.0511 4.95245 -25.9869
upperneck 17.5818 8.79574 11.6881
head 4.68082 3.87347 8.39863
rclavicle -2.14687e-014 -1.19271e-014
rhumerus 82.1965 23.8566 -75.9082
rradius 50.1608
rwrist -343.936
rhand -18.9706 -21.072
rfingers 7.12502
rthumb 7.33353 -50.9249
lclavicle -2.14687e-014 -1.19271e-014
lhumerus 69.5816 22.8281 54.332
lradius 37.7377
lwrist -18.5342
lhand 0.945201 1.99273
lfingers 7.12502
lthumb 26.4954 30.1602
rfemur -84.4731 18.738 34.0502
rtibia 121.868
rfoot -23.8831 -12.4991
rtoes 8.60623
lfemur -54.532 33.1526 -14.9736
ltibia 80.8851
lfoot -211.86 162.845
ltoes 15.6653
2057
root 14.263 30.8838 50.39 -198.74 19.7735 -177.33
lowerback 34.7285 -2.44715 -3.11046
upperback 10.1722 -1.51202 -0.505946
thorax -6.24666 0.40312 1.52033
lowerneck -5.87155 4.99102 -25.9613
upperneck 17.6104 8.81678 11.6414
head 4.66093 3.88294 8.37226
rclavicle -3.57812e-015 -1.27222e-014
rhumerus 81.8686 23.8444 -75.7862
rradius 50.3089
rwrist -343.927
rhand -18.6782 -21.2281
rfingers 7.12502
rthumb 7.61575 -51.0709
lclavicle -3.57812e-015 -1.27222e-014
lhumerus 69.143 22.6362 54.3635
lradius 38.0954
lwrist -18.5362
lhand 0.807287 2.08033
lfingers 7.12502
lthumb 26.3634 30.2677
rfemur -85.8563 18.518 34.1032
rtibia 121.455
rfoot -23.7083 -12.7935
rtoes 6.2264
lfemur -54.1408 33.2498 -15.0456
ltibia 81.2735
lfoot -211.753 163.057
ltoes 14.9618
2058
root 14.2587 30.8834 50.3532 -199.205 19.6093 -177.497
lowerback 34.6338 -2.47465 -3.28462
upperback 10.3624 -1.55129 -0.551641
thorax -5.99604 0.399483 1.57653
lowerneck -5.87691 4.95439 -25.9064
upperneck 17.5387 8.75159 11.6489
head 4.65205 3.85573 8.36298
rclavicle -4.59193e-014 3.18055e-015
rhumerus 81.6596 23.7941 -75.6765
rradius 50.4601
rwrist -343.854
rhand -18.3383 -21.6464
rfingers 7.12502
rthumb 7.94384 -51.4771
lclavicle -4.59193e-014 3.18055e-015
lhumerus 68.8126 22.4742 54.4244
lradius 38.463
lwrist -18.6828
lhand 0.400236 1.98846
lfingers 7.12502
lthumb 25.9737 30.2336
rfemur -87.1109 18.3023 34.1444
rtibia 120.822
rfoot -23.7171 -12.7556
rtoes 4.76585
lfemur -53.7863 33.3147 -15.0435
ltibia 81.6709
lfoot -211.481 162.942
ltoes 13.1192
2059
root 14.2575 30.8845 50.3148 -199.527 19.5652 -177.307
lowerback 34.4646 -2.57448 -3.1221
upperback 10.5646 -1.56449 -0.501275
thorax -5.72027 0.40636 1.54702
lowerneck -5.90403 4.98838 -25.918
upperneck 17.5765 8.79305 11.7393
head 4.65284 3.88063 8.39798
rclavicle 1.92821e-014 -1.74931e-014
rhumerus 81.4311 23.8183 -75.5995
rradius 50.6035
rwrist -343.66
rhand -18.0911 -22.0276
rfingers 7.12502
rthumb 8.18244 -51.8491
lclavicle 1.92821e-014 -1.74931e-014
lhumerus 68.4172 22.3157 54.4991
lradius 38.8958
lwrist -18.7257
lhand 0.0358475 1.95483
lfingers 7.12502
lthumb 25.6247 30.2507
rfemur -88.107 18.1738 34.5358
rtibia 119.885
rfoot -23.7861 -12.5981
rtoes 4.13867
lfemur -53.468 33.4702 -14.6132
ltibia 82.0745
lfoot -211.035 162.425
ltoes 13.6278
2060
root 14.2567 30.8856 50.277 -199.928 19.4905 -177.233
lowerback 34.3459 -2.62011 -3.10855
upperback 10.7123 -1.57127 -0.435223
thorax -5.51512 0.411745 1.61051
lowerneck -5.73184 4.98335 -26.0326
upperneck 17.5971 8.74046 11.8757
head 4.62699 3.85761 8.45513
rclavicle 3.73715e-014 -3.97569e-015
rhumerus 81.1148 23.8481 -75.4063
rradius 50.7555
rwrist -343.821
rhand -18.0523 -22.2192
rfingers 7.12502
rthumb 8.21985 -52.0393
lclavicle 3.73715e-014 -3.97569e-015
lhumerus 67.8982 22.0968 54.4261
lradius 39.2597
lwrist -18.5659
lhand -0.199885 1.96647
lfingers 7.12502
lthumb 25.3989 30.2946
rfemur -88.8792 17.9855 34.7882
rtibia 118.74
rfoot -23.8921 -12.0371
rtoes 2.7489
lfemur -53.0714 33.5418 -14.2687
ltibia 82.4764
lfoot -210.777 162.332
ltoes 14.3824
2061
root 14.2536 30.885 50.2373 -200.394 19.347 -177.39
lowerback 34.2451 -2.60299 -3.3096
upperback 10.8166 -1.58429 -0.422764
thorax -5.35468 0.409669 1.73342
lowerneck -5.38554 4.95542 -26.0088
upperneck 17.5042 8.61614 11.8562
head 4.56661 3.80001 8.42503
rclavicle 2.20651e-014 1.98785e-015
rhumerus 80.7212 23.8134 -74.9627
rradius 51.0144
rwrist -344.349
rhand -18.1142 -22.4613
rfingers 7.12502
rthumb 8.16015 -52.2838
lclavicle 2.20651e-014 1.98785e-015
lhumerus 67.313 21.8097 54.2224
lradius 39.6081
lwrist -18.3668
lhand -0.493311 1.94615
lfingers 7.12502
lthumb 25.1178 30.3139
rfemur -89.5588 17.7696 34.7342
rtibia 117.451
rfoot -23.8637 -11.2898
rtoes 2.22804
lfemur -52.6931 33.6143 -14.2172
ltibia 82.8829
lfoot -210.652 162.388
ltoes 14.1418
2062
root 14.2478 30.8889 50.1941 -200.721 19.274 -177.416
lowerback 34.0299 -2.63082 -3.31638
upperback 10.9252 -1.59616 -0.402541
thorax -5.15725 0.405484 1.76172
lowerneck -5.25697 5.0672 -25.9055
upperneck 17.6495 8.75734 11.7808
head 4.57342 3.86907 8.38494
rclavicle 8.84592e-014 -3.65764e-014
rhumerus 80.1673 23.9252 -75.1052
rradius 51.2993
rwrist -344.239
rhand -18.0392 -22.6419
rfingers 7.12502
rthumb 8.23246 -52.4615
lclavicle 8.84592e-014 -3.65764e-014
lhumerus 66.7012 21.5416 53.9953
lradius 40.0952
lwrist -18.1923
lhand -0.672331 2.09504
lfingers 7.12502
lthumb 24.9462 30.4867
rfemur -90.2384 17.5709 34.539
rtibia 116.096
rfoot -24.156 -9.32391
rtoes 5.55748
lfemur -52.3587 33.7669 -14.0683
ltibia 83.2479
lfoot -210.462 162.206
ltoes 13.8762
